<?xml version="1.0" encoding="utf-8"?>
<!-- Svg Vector Icons : http://www.onlinewebfonts.com/icon -->
<!DOCTYPE svg PUBLIC "-//W3C//DTD SVG 1.1//EN" "http://www.w3.org/Graphics/SVG/1.1/DTD/svg11.dtd">
<svg version="1.1" xmlns="http://www.w3.org/2000/svg" xmlns:xlink="http://www.w3.org/1999/xlink" x="0px" y="0px" viewBox="0 0 1000 1000" enable-background="new 0 0 1000 1000" xml:space="preserve">
<metadata> Svg Vector Icons : http://www.onlinewebfonts.com/icon </metadata>
<g><g transform="translate(0.000000,512.000000) scale(0.100000,-0.100000)"><path d="M4641.9,5002.8c-972.7-93.8-1826.7-639.5-2207.8-1413.1c-166.6-337-191.5-488.3-191.5-1175.7v-530.4l-44-17.2c-68.9-26.8-166.6-134-210.6-229.8c-30.6-68.9-40.2-126.4-40.2-270c0-172.3,5.7-197.2,107.2-480.6c132.1-369.6,185.7-476.8,293-582.1c151.3-153.2,329.4-204.9,518.9-155.1c53.6,13.4,61.3,9.6,84.3-46c32.6-80.4,13.4-383-36.4-580.2c-82.3-317.9-275.7-574.4-528.5-702.7l-128.3-65.1l72.8-26.8c176.2-61.3,448.1-120.6,618.5-130.2c300.6-19.1,559.1,55.5,781.2,224l101.5,76.6l128.3-109.1c141.7-120.6,384.9-283.4,532.3-356.2c323.6-160.9,557.2-181.9,842.5-70.9c220.2,84.3,430.8,210.6,656.8,390.6l178.1,143.6l99.6-76.6c222.1-166.6,480.6-241.3,781.2-222.1c170.4,9.6,442.3,68.9,618.5,130.2l72.8,26.8l-128.3,65.1c-333.2,170.4-545.7,540-578.3,1007.2c-15.3,241.3-1.9,296.8,109.1,417.4c118.7,132.1,176.2,233.6,241.3,423.2c44.1,128.3,53.6,187.6,53.6,354.2c1.9,174.2-3.8,212.5-42.1,283.4c-49.8,93.8-145.5,162.8-212.6,151.3c-42.1-7.7-44-3.8-32.5,61.3c68.9,419.3,84.2,1028.3,30.6,1313.6c-74.7,405.9-241.3,716.1-526.6,982.3c-526.6,492.1-1394,704.7-2211.6,541.9c-815.7-162.8-1415-672.1-1587.4-1344.2c-88.1-340.8-99.6-854-30.6-1338.5c32.6-241.3,32.6-233.6,11.5-222.1c-7.7,5.8-44,90-78.5,187.7c-74.7,206.8-97.7,248.9-162.8,283.4l-47.9,24.9v448.1c0,639.5,55.5,859.7,314,1250.4c455.7,681.7,1231.2,1072.3,2136.9,1072.3c1011,0,1861.2-490.2,2274.8-1311.7c153.2-302.5,162.8-363.8,170.4-1024.4c3.8-346.6,15.3-605.1,26.8-635.7c46-113,218.3-111.1,266.2,3.8c15.3,38.3,21.1,239.4,15.3,712.3l-7.6,656.8l-53.6,162.8C7311.2,4439.8,6068.4,5140.7,4641.9,5002.8z M6371,2852.5c149.4-149.4,256.6-310.2,377.2-563l95.7-201.1l-11.5-222.1c-5.7-122.5-38.3-363.8-70.8-538.1s-63.2-340.8-68.9-373.4c-5.8-36.4,7.6-17.2,40.2,55.5c68.9,155.1,134,252.8,191.5,291.1c42.1,28.7,55.5,28.7,97.6,7.7c80.4-44,122.6-134,122.6-262.3c0-220.2-91.9-457.6-237.4-616.6c-45.9-47.9-126.4-178.1-181.9-287.2C6415-481.2,5900-1027,5367.6-1295c-296.8-147.4-438.5-147.4-739.1,1.9c-296.8,147.5-723.8,507.4-965.1,815.7l-63.2,80.4l162.8-86.2c187.7-99.6,415.5-185.7,624.2-237.4c78.5-19.2,168.5-44,197.2-55.5c30.6-11.5,147.4-21.1,260.4-21.1c256.6,0,350.4,38.3,419.3,172.3c51.7,105.3,53.6,170.4,3.8,268.1c-67,132.1-132.1,162.8-371.5,168.5c-113,3.8-235.5,1.9-271.9-3.8c-63.2-13.4-174.3-101.5-212.5-172.3c-19.2-36.4-24.9-36.4-170.4,15.3c-337,118.7-672.1,331.3-926.8,584c-99.6,101.5-130.2,143.6-139.8,203c-7.7,40.2-68.9,235.5-139.8,432.7c-70.8,197.2-122.5,373.4-116.8,388.7c7.7,17.2,34.5,40.2,59.4,53.6c88.1,38.3,178.1-55.5,289.1-302.5c26.8-63.2,46-91.9,40.2-65.1c-32.6,164.7-107.2,580.2-116.8,660.6c-13.4,91.9-9.6,99.6,67,187.6c124.5,141.7,134,143.6,576.4,155.1c427,9.6,727.6,46,1018.7,118.7c570.6,143.6,984.2,423.2,1254.2,844.4C6183.3,3032.4,6192.9,3030.5,6371,2852.5z"/><path d="M3372.4-1746.9c-47.9-15.3-361.9-101.5-698.9-191.5c-963.1-258.5-1323.1-388.7-1648.7-597.4C820-2668,745.3-2750.3,655.3-2941.8c-168.5-361.9-229.8-704.6-245.1-1384.4L398.7-4780H5000h4601.3l-11.5,455.7c-15.3,687.4-76.6,1026.3-250.9,1392.1c-90,191.5-157,262.3-379.1,405.9c-304.5,197.2-685.5,333.2-1633.3,587.8c-337,90-654.9,176.2-706.6,193.4l-91.9,28.7l11.5-49.8c26.8-101.5,15.3-494-17.2-637.6c-65.1-277.7-495.9-1064.6-769.8-1399.7c-197.2-243.2-457.6-484.4-652.9-610.8l-101.5-65.1l-158.9,107.2c-291.1,199.2-603.2,541.9-863.6,953.6c-151.3,237.4-411.7,744.9-467.2,911.5c-55.5,162.8-78.5,405.9-59.4,610.8c7.7,93.8,13.4,172.3,11.5,172.3C3460.5-1722,3420.3-1733.5,3372.4-1746.9z"/><path d="M4576.8-2124.2c-57.4-53.6-126.4-122.5-151.3-151.3l-44-53.6l72.8-109.1c40.2-59.4,114.9-151.3,168.5-203l95.7-91.9l-164.7-413.6l-164.7-413.6l59.4-88.1c93.8-134,218.3-262.3,394.4-398.3l157-124.5l134,107.2c160.8,130.2,306.4,275.7,404.1,405.9l74.7,97.7L5450-3154.3c-90,224-162.8,411.7-162.8,419.3c0,7.7,47.9,65.1,107.2,126.4c57.5,63.2,132.1,151.3,162.8,197.2l59.4,84.2l-70.9,84.3c-36.4,45.9-105.3,114.9-151.3,153.2l-82.3,67h-314h-314L4576.8-2124.2z"/></g></g>
</svg>